<svg width="99" height="20" viewBox="0 0 99 20" xmlns="http://www.w3.org/2000/svg">
<g clip-path="url(#clip0_206_374)">
<path d="M77.1357 4.4807C77.1504 4.39783 77.1063 4.31584 77.0303 4.28376L76.5669 4.09038C75.2175 3.50668 73.7523 3.26607 72.294 3.38994C70.6144 3.53609 69.1198 4.10018 67.9692 5.44225C67.1082 6.45459 66.6337 7.85726 67.1307 9.1619C67.6312 10.4754 68.9253 11.2115 70.1848 11.5707C70.5755 11.6821 71.4097 11.8006 71.4235 12.3513C71.4546 13.6158 68.4792 12.3174 68.028 12.092L66.957 11.5796C66.8541 11.5306 66.7339 11.5947 66.714 11.7097L66.0519 15.5149C66.0372 15.5986 66.083 15.6824 66.1599 15.7127L66.644 15.9034C67.8759 16.3837 69.1466 16.6342 69.9635 16.6466C72.6337 16.6547 74.4249 15.8901 75.5426 14.4794C77.4184 12.1116 76.6629 9.54687 73.8388 8.70741C73.4014 8.57552 71.9413 8.5069 72.1375 7.67546C72.377 6.66134 75.4406 7.93924 76.2557 8.29927C76.3577 8.34471 76.4736 8.27966 76.4935 8.16649L77.1349 4.48159L77.1357 4.4807Z"/>
<path d="M87.8125 4.4807C87.8272 4.39783 87.7831 4.31584 87.707 4.28376L87.248 4.09038C85.8986 3.50668 84.4334 3.26607 82.9751 3.38994C81.2954 3.53609 79.8008 4.10018 78.6503 5.44225C77.7893 6.45459 77.3147 7.85726 77.8118 9.1619C78.3123 10.4754 79.6063 11.2115 80.8658 11.5707C81.2565 11.6821 82.0907 11.8006 82.1046 12.3513C82.1357 13.6158 79.1603 12.3174 78.709 12.092L77.638 11.5796C77.5351 11.5306 77.415 11.5947 77.3951 11.7097L76.7338 15.5149C76.7191 15.5986 76.7649 15.6824 76.8419 15.7127L77.3251 15.9034C78.5569 16.3837 79.8276 16.6342 80.6445 16.6466C83.3148 16.6547 85.1059 15.8901 86.2236 14.4794C88.0995 12.1116 87.3439 9.54687 84.5198 8.70741C84.0824 8.57552 82.6224 8.5069 82.8186 7.67546C83.058 6.66134 86.1164 7.93924 86.9316 8.29927C87.0336 8.34471 87.1494 8.27966 87.1693 8.16649L87.8107 4.48159L87.8125 4.4807Z"/>
<path d="M55.0406 16.4096H64.1164C64.2002 16.4096 64.2711 16.3481 64.2867 16.2634L64.8961 12.7603C64.916 12.6507 64.8339 12.55 64.7258 12.55L59.9645 12.5536C59.8556 12.5536 59.7734 12.4511 59.7951 12.3406L59.9273 11.5814C59.9437 11.4985 60.0146 11.4379 60.0967 11.4379H64.9808C65.0638 11.4379 65.1356 11.3773 65.1511 11.2926L65.5885 8.7796C65.6084 8.66998 65.5272 8.56839 65.4182 8.56839H60.6569C60.5488 8.56839 60.4667 8.4668 60.4866 8.35719L60.6171 7.61219C60.6327 7.52753 60.7036 7.46694 60.7874 7.46694H65.6724C65.7562 7.46694 65.828 7.40545 65.8427 7.3199L66.4556 3.79898C66.4746 3.68937 66.3933 3.58956 66.2853 3.58956H57.2095C57.1257 3.58956 57.0539 3.65194 57.0392 3.7366L54.8703 16.1993C54.8513 16.3089 54.9326 16.4087 55.0406 16.4087V16.4096Z"/>
<path d="M87.5825 16.4096H96.6582C96.7421 16.4096 96.813 16.3481 96.8285 16.2634L97.438 12.7603C97.4579 12.6507 97.3757 12.55 97.2677 12.55L92.5063 12.5536C92.3974 12.5536 92.3153 12.4511 92.3369 12.3406L92.4692 11.5814C92.4856 11.4985 92.5565 11.4379 92.6386 11.4379H97.5227C97.6057 11.4379 97.6774 11.3773 97.693 11.2926L98.1304 8.7796C98.1503 8.66998 98.069 8.56839 97.9601 8.56839H93.1988C93.0907 8.56839 93.0086 8.4668 93.0285 8.35719L93.159 7.61219C93.1746 7.52753 93.2454 7.46694 93.3293 7.46694H98.2142C98.2981 7.46694 98.3698 7.40545 98.3845 7.3199L98.9974 3.79898C99.0164 3.68937 98.9352 3.58956 98.8271 3.58956H89.7514C89.6675 3.58956 89.5958 3.65194 89.5811 3.7366L87.4122 16.1993C87.3932 16.3089 87.4744 16.4087 87.5825 16.4087V16.4096Z"/>
<path d="M23.7531 16.4114H27.7183C27.8021 16.4114 27.8739 16.3499 27.8886 16.2652L28.4142 13.2425C28.4289 13.1578 28.5006 13.0963 28.5845 13.0963H33.2274C33.3104 13.0963 33.3821 13.0357 33.3977 12.9511L34.0088 9.43815C34.0287 9.32854 33.9466 9.22695 33.8385 9.22695H29.3201C29.212 9.22695 29.1299 9.12536 29.1498 9.01575L29.3936 7.61398C29.4091 7.52932 29.48 7.46872 29.5639 7.46872L34.2059 7.47139C34.2898 7.47139 34.3615 7.4099 34.3762 7.32435L34.99 3.79898C35.009 3.68937 34.9277 3.58956 34.8197 3.58956L25.9229 3.59134C25.839 3.59134 25.7673 3.65283 25.7526 3.73838L23.5837 16.2011C23.5647 16.3107 23.6459 16.4105 23.754 16.4105L23.7531 16.4114Z"/>
<path d="M38.8843 16.2643L41.0532 3.79987C41.0722 3.69025 40.9909 3.59045 40.8829 3.59045L36.9298 3.59223C36.8459 3.59223 36.7742 3.65372 36.7595 3.73927L34.5871 16.202C34.5681 16.3116 34.6494 16.4114 34.7574 16.4114H38.7131C38.797 16.4114 38.8687 16.3499 38.8834 16.2643H38.8843Z"/>
<path d="M55.2715 3.79897L53.1017 16.2617C53.087 16.3472 53.0153 16.4096 52.9314 16.4096H49.0492C48.9792 16.4096 48.917 16.3668 48.8902 16.3009L46.4931 10.1555C46.4386 10.062 46.3072 9.93808 46.1447 10.0361C46.0652 10.0842 46.015 10.1725 46.0003 10.2669L44.957 16.2599C44.9431 16.3463 44.8714 16.4096 44.7867 16.4096H40.8301C40.7221 16.4096 40.6408 16.3089 40.6598 16.2002L42.8287 3.73749C42.8434 3.65283 42.9152 3.59045 42.999 3.59045H47.3065C47.3765 3.59045 47.4405 3.63411 47.4664 3.70184L49.739 9.84897C49.7728 9.93808 49.899 10.062 50.0546 9.96393C50.1306 9.9158 50.1782 9.82758 50.1929 9.73312L51.2354 3.74194C51.2484 3.65461 51.321 3.59045 51.4066 3.59045H55.102C55.2092 3.59045 55.2905 3.69025 55.2723 3.79897H55.2715Z"/>
<path d="M0.216754 0.00180518L19.0676 2.28882e-05C19.2249 2.28882e-05 19.3295 0.166667 19.2656 0.314598L16.6014 6.46885C16.5668 6.54906 16.489 6.60164 16.4034 6.60164H2.88009C2.79451 6.60164 2.71671 6.54995 2.68214 6.46885L0.0187971 0.31638C-0.0451714 0.16845 0.0594258 0.00180518 0.216754 0.00180518Z"/>
<path d="M8.89339 19.8066L9.65929 13.5962C9.66793 13.5294 9.7051 13.4706 9.76043 13.4349L14.9497 10.1831C15.1347 10.0673 15.0551 9.77321 14.8381 9.77321H4.44325C4.28766 9.77321 4.18392 9.93807 4.24703 10.0842L8.48365 19.869C8.57182 20.0731 8.86487 20.0285 8.89253 19.8066H8.89339Z"/>
</g>
<defs>
<clipPath id="clip0_206_374">
<rect width="99" height="20"/>
</clipPath>
</defs>
</svg>
